<svg xmlns="http://www.w3.org/2000/svg">
		<symbol id="fbicon" viewBox="0 0 13 22">
			<title>fbicon</title>
			<path stroke="#333" stroke-linecap="round" stroke-linejoin="round" stroke-width="2" d="M12 1H9a5 5 0 0 0-5 5v3H1v4h3v8h4v-8h3l1-4H8V6a1 1 0 0 1 1-1h3V1z" />
		</symbol>
		<symbol id="twittericon" viewBox="0 0 24 21">
			<title>twittericon</title>
			<path stroke="#fff" stroke-linecap="round" stroke-linejoin="round" stroke-width="2" d="M23 2a10.9 10.9 0 0 1-3.14 1.53 4.48 4.48 0 0 0-7.86 3v1A10.66 10.66 0 0 1 3 3s-4 9 5 13a11.64 11.64 0 0 1-7 2c9 5 20 0 20-11.5 0-.279-.028-.557-.08-.83A7.72 7.72 0 0 0 23 2z" />
		</symbol>
		<symbol id="arrowleft" viewBox="0 0 8 14">
			<title>arrowleft</title>
			<path stroke="#fff" stroke-linecap="round" stroke-linejoin="round" stroke-width="2" d="M1 13l6-6-6-6" />
		</symbol>
		<symbol id="igicon" viewBox="0 0 24 24">
			<title>igicon</title>
			<path stroke="#333" stroke-linecap="round" stroke-linejoin="round" stroke-width="2" d="M17 2H7a5 5 0 0 0-5 5v10a5 5 0 0 0 5 5h10a5 5 0 0 0 5-5V7a5 5 0 0 0-5-5z" />
			<path stroke="#333" stroke-linecap="round" stroke-linejoin="round" stroke-width="2" d="M16 11.37a4 4 0 1 1-7.913 1.173A4 4 0 0 1 16 11.37zm1.5-4.87h.01" />
		</symbol>
</svg>
